<?xml version="1.0" encoding="UTF-8" standalone="no"?>
<svg
   xmlns:dc="http://purl.org/dc/elements/1.1/"
   xmlns:cc="http://creativecommons.org/ns#"
   xmlns:rdf="http://www.w3.org/1999/02/22-rdf-syntax-ns#"
   xmlns:svg="http://www.w3.org/2000/svg"
   xmlns="http://www.w3.org/2000/svg"
   viewBox="0 0 303.04001 223.96001"
   height="223.96001"
   width="303.04001"
   xml:space="preserve"
   id="svg2"
   version="1.1"><metadata
     id="metadata8"><rdf:RDF><cc:Work
         rdf:about=""><dc:format>image/svg+xml</dc:format><dc:type
           rdf:resource="http://purl.org/dc/dcmitype/StillImage" /></cc:Work></rdf:RDF></metadata><defs
     id="defs6" /><g
     transform="matrix(1.3333333,0,0,-1.3333333,0,223.96)"
     id="g10"><g
       transform="scale(0.1)"
       id="g12"><path
         id="path14"
         style="fill:#2f62b6;fill-opacity:1;fill-rule:nonzero;stroke:none"
         d="m 1539.65,1305.51 c 4.18,-24.87 5.86,-52.43 5.86,-78.54 0,-232.947 -184.94,-422.361 -415.36,-428.083 0,0 126.9,57.047 265.07,239.623 134.43,178.21 144.43,267 144.43,267 v 0" /><path
         id="path16"
         style="fill:#2f62b6;fill-opacity:1;fill-rule:nonzero;stroke:none"
         d="m 1541.74,1666.78 c 43.81,-35.63 43.81,-109.77 -13.77,-263.1 C 1454.93,1210.02 1282.5,1021.57 1196.1,932.551 1098.84,832.516 910.566,698.984 832.898,746.055 761.5,789.602 812.012,920.109 816.621,933.914 c 39.242,118.276 143.594,271.336 158.215,374.286 15.437,111.84 -20.895,140.01 -50.941,155.64 -18.372,9.62 -107.704,37.32 -180.754,-111.87 -73.063,-149.14 -7.098,-311.37 -7.098,-311.37 -27.137,56.35 -42.156,119.53 -42.156,186.37 0,236.49 190.367,428.23 425.823,428.23 73.03,0 142.33,-18.69 202.46,-51.49 0,0 156.97,113.45 219.57,63.07 z m -42.99,-43.91 c -40.07,43.67 -150.27,-34.64 -150.27,-34.64 50.5,-32.33 93.48,-75.27 126.48,-125.52 0,0 61.35,118.92 23.79,160.16 v 0" /><path
         id="path18"
         style="fill:#2f62b6;fill-opacity:1;fill-rule:nonzero;stroke:none"
         d="m 736.902,397.211 -84.355,170.371 h 43.859 l 60.407,-119.781 h 0.585 l 56.649,119.781 H 858.09 L 776.434,397.211 h -39.532 v 0" /><path
         id="path20"
         style="fill:none;stroke:#387bc7;stroke-width:2.16000009;stroke-linecap:butt;stroke-linejoin:miter;stroke-miterlimit:22.92560005;stroke-dasharray:none;stroke-opacity:1"
         d="m 736.902,397.211 -84.355,170.371 h 43.859 l 60.407,-119.781 h 0.585 l 56.649,119.781 H 858.09 L 776.434,397.211 h -39.532 z" /><path
         id="path22"
         style="fill:#2f62b6;fill-opacity:1;fill-rule:nonzero;stroke:none"
         d="m 968.52,567.582 103.2,-114.301 h 0.57 l -0.57,114.301 h 40.21 V 397.211 h -42.8 L 962.363,513.68 h -0.472 V 397.211 H 921.68 v 170.371 h 46.84 v 0" /><path
         id="path24"
         style="fill:none;stroke:#387bc7;stroke-width:2.16000009;stroke-linecap:butt;stroke-linejoin:miter;stroke-miterlimit:22.92560005;stroke-dasharray:none;stroke-opacity:1"
         d="m 968.52,567.582 103.2,-114.301 h 0.57 l -0.57,114.301 h 40.21 V 397.211 h -42.8 L 962.363,513.68 h -0.472 V 397.211 H 921.68 v 170.371 h 46.84 z" /><path
         id="path26"
         style="fill:#2f62b6;fill-opacity:1;fill-rule:nonzero;stroke:none"
         d="m 1324.69,567.582 h 1.15 c 11.71,-0.102 21.62,-1.641 29.93,-4.641 8.54,-3.132 15.47,-7.211 20.76,-12.3 5.39,-5.09 9.34,-10.922 11.75,-17.43 2.49,-6.551 3.64,-13.332 3.64,-20.332 0,-6.848 -1.15,-13.57 -3.64,-20.18 -2.41,-6.617 -6.36,-12.469 -11.65,-17.551 -5.39,-5.109 -12.32,-9.218 -20.86,-12.316 -8.48,-3.094 -18.76,-4.66 -30.98,-4.66 h -68.39 v -60.961 h -42.9 v 170.371 h 111.19 z m -11.55,-80.344 c 4.91,0 9.64,0.321 14.15,0.953 4.51,0.649 8.55,1.879 12.03,3.7 3.36,1.847 6.15,4.449 8.26,7.82 2.13,3.34 3.07,7.75 3.07,13.168 0,5.441 -0.94,9.84 -3.07,13.18 -2.11,3.363 -4.9,5.98 -8.26,7.8 -3.48,1.84 -7.52,3.063 -12.03,3.7 -4.51,0.652 -9.24,0.972 -14.15,0.972 h -56.74 v -51.293 h 56.74 v 0" /><path
         id="path28"
         style="fill:none;stroke:#387bc7;stroke-width:2.16000009;stroke-linecap:butt;stroke-linejoin:miter;stroke-miterlimit:22.92560005;stroke-dasharray:none;stroke-opacity:1"
         d="m 1324.69,567.582 h 1.15 c 11.71,-0.102 21.62,-1.641 29.93,-4.641 8.54,-3.132 15.47,-7.211 20.76,-12.3 5.39,-5.09 9.34,-10.922 11.75,-17.43 2.49,-6.551 3.64,-13.332 3.64,-20.332 0,-6.848 -1.15,-13.57 -3.64,-20.18 -2.41,-6.617 -6.36,-12.469 -11.65,-17.551 -5.39,-5.109 -12.32,-9.218 -20.86,-12.316 -8.48,-3.094 -18.76,-4.66 -30.98,-4.66 h -68.39 v -60.961 h -42.9 v 170.371 h 111.19 z m -11.55,-80.344 c 4.91,0 9.64,0.321 14.15,0.953 4.51,0.649 8.55,1.879 12.03,3.7 3.36,1.847 6.15,4.449 8.26,7.82 2.13,3.34 3.07,7.75 3.07,13.168 0,5.441 -0.94,9.84 -3.07,13.18 -2.11,3.363 -4.9,5.98 -8.26,7.8 -3.48,1.84 -7.52,3.063 -12.03,3.7 -4.51,0.652 -9.24,0.972 -14.15,0.972 h -56.74 v -51.293 h 56.74 z" /><path
         id="path30"
         style="fill:#2f62b6;fill-opacity:1;fill-rule:nonzero;stroke:none"
         d="m 1435.4,531.691 v 35.891 h 179 v -35.891 h -69.34 v -134.48 h -42.81 v 134.48 h -66.85 v 0" /><path
         id="path32"
         style="fill:none;stroke:#387bc7;stroke-width:2.16000009;stroke-linecap:butt;stroke-linejoin:miter;stroke-miterlimit:22.92560005;stroke-dasharray:none;stroke-opacity:1"
         d="m 1435.4,531.691 v 35.891 h 179 v -35.891 h -69.34 v -134.48 h -42.81 v 134.48 h -66.85 z" /><path
         id="path34"
         style="fill:#387bc7;fill-opacity:1;fill-rule:evenodd;stroke:none"
         d="m 139.297,159.719 c -2.383,-30.891 -29.723,-62.2971 -61.0861,-62.7385 -0.2773,0 -0.4765,0 -0.9609,0 C 43.7109,96.9805 0,127.398 0,181.77 c 0,3.269 0.222656,6.55 0.460938,10.039 C 4.98438,239.398 35.668,267.5 69.1797,273.551 c 4.2461,0.949 8.5547,1.398 12.832,1.398 18.0703,0 34.2183,-7.449 44.1953,-18.73 3.82,-3.957 5.238,-7.91 5.238,-11.239 0,-5.582 -4.504,-9.351 -11.168,-9.351 -2.851,0 -6.394,0.699 -9.707,2.34 -5.98,3.07 -11.9294,4.66 -17.6208,4.66 -8.7812,0 -16.625,-4.207 -22.1289,-13.559 -4.9844,-8.66 -8.0469,-22.242 -8.0469,-36.32 0,-19.66 6.1485,-40.02 21.8438,-46.602 2.1484,-0.918 4.0234,-1.398 5.9492,-1.398 8.0742,0 15.1836,7.98 28.3006,23.891 2.348,3.05 6.153,4.691 9.965,4.691 5.469,0 10.465,-3.523 10.465,-11.961 0,-0.441 0,-1.121 0,-1.652 v 0" /><path
         id="path36"
         style="fill:#387bc7;fill-opacity:1;fill-rule:evenodd;stroke:none"
         d="m 279.07,118.781 c -1.644,-14.551 -6.179,-20.1912 -14.222,-20.1912 -4.559,0 -9.996,1.9102 -16.914,4.6992 -6.141,2.602 -11.387,3.781 -16.172,3.781 -9.969,0 -17.821,-4.929 -27.114,-12.1911 -5.21,-3.9883 -11.839,-6.3281 -18.496,-6.3281 -9.297,0 -19.039,4.4297 -25.929,15.4292 -4.985,8.211 -7.387,19.7 -7.387,32.559 0,17.352 4.527,36.793 13.57,52.699 4.5,7.481 9.262,11.024 13.535,11.024 6.407,0 11.161,-7.512 11.161,-20.84 0,-0.703 0,-1.203 0,-1.871 0,-2.34 0,-4.692 0,-7.27 0,-21.32 3.574,-42.883 19.777,-43.582 0.457,0 0.937,0 1.16,0 24.285,0 24.734,28.102 33.063,56.91 3.535,13.11 9.492,17.832 14.961,17.832 6.207,0 11.894,-5.871 14.492,-12.671 3.804,-10.27 5.957,-29.29 5.957,-47.309 0,-7.949 -0.453,-15.902 -1.442,-22.68 v 0" /><path
         id="path38"
         style="fill:#387bc7;fill-opacity:1;fill-rule:evenodd;stroke:none"
         d="m 357.539,186.891 c -1.191,0.488 -2.601,0.711 -3.801,0.711 -7.394,0 -15.687,-7 -19.484,-17.321 -1.672,-3.98 -2.383,-7.972 -2.383,-11.492 0,-7.699 3.059,-14.039 8.527,-16.148 1.454,-0.481 2.637,-0.672 4.082,-0.672 7.336,0 15.442,6.992 19.489,17.301 1.652,4 2.383,7.992 2.383,11.5 0,7.73 -3.122,14.019 -8.813,16.121 z m 28.758,-63.711 c -11.875,-17.078 -31.359,-27.1487 -49.914,-27.1487 -9.039,0 -17.852,2.5585 -25.699,7.7497 -12.836,8.91 -19.008,23.617 -19.008,39.34 0,12.859 4.301,26.481 12.351,37.93 11.899,16.879 32.09,26.687 51.133,26.687 9.746,0 19.008,-2.308 26.883,-7.726 12.102,-8.43 17.562,-21.793 17.562,-36.524 0,-13.597 -4.5,-27.879 -13.308,-40.308 v 0" /><path
         id="path40"
         style="fill:#387bc7;fill-opacity:1;fill-rule:evenodd;stroke:none"
         d="m 528.473,128.59 c -10.965,-20.168 -37.106,-31.3908 -60.875,-31.3908 -9.973,0 -19.711,1.8711 -27.817,6.0898 -18.531,9.602 -28.75,27.391 -28.75,46.859 0,9.332 2.371,18.961 7.102,28.071 12.605,23.222 39.972,40.551 67.535,40.551 6.66,0 13.09,-0.95 19.488,-3.079 10.004,-3.261 14.278,-7.953 14.278,-11.902 0,-4.687 -5.715,-8.457 -14.524,-8.457 -0.457,0 -0.715,0 -1.172,0 -0.73,0 -1.41,0 -2.129,0 -16.648,0 -40.441,-7.012 -40.441,-36.293 0,-0.937 0,-2.117 0,-3.059 1.195,-18.261 12.375,-23.871 24.016,-23.871 9.492,0 19.726,3.95 24.48,7.481 4.055,3.051 9.289,4.66 13.574,4.66 4.504,0 8.047,-1.859 8.047,-6.75 0,-2.371 -0.937,-5.199 -2.812,-8.91 v 0" /><path
         id="path42"
         style="fill:#387bc7;fill-opacity:1;fill-rule:evenodd;stroke:none"
         d="m 653.035,93.6797 c -3.347,-0.4492 -7.621,-0.9414 -12.117,-0.9414 -6.918,0 -13.574,1.1328 -14.961,5.4336 -0.277,0.6679 -0.277,1.1562 -0.277,1.8401 0,3.769 3.812,7.519 9.992,11.226 5.246,3.043 13.543,10.551 13.543,20.621 0,7.731 -5.211,17.102 -21.164,26.7 -12.809,7.523 -17.821,15.91 -17.821,23.902 0,18.75 26.407,35.59 43.29,38.621 2.582,0.477 5.015,0.738 6.886,0.738 7.356,0 10.449,-2.832 10.449,-6.601 0,-2.539 -1.671,-5.36 -4.277,-7.938 -4.051,-3.769 -14.734,-9.609 -14.734,-18.511 0,-6.559 5.73,-14.77 24.258,-25.032 15.437,-8.457 21.609,-18.988 21.609,-29.316 0,-18.961 -21.168,-37.0001 -44.676,-40.7423 v 0" /><path
         id="path44"
         style="fill:#387bc7;fill-opacity:1;fill-rule:evenodd;stroke:none"
         d="m 772.867,186.891 c -1.219,0.488 -2.629,0.711 -3.824,0.711 -7.367,0 -15.719,-7 -19.465,-17.321 -1.723,-3.98 -2.406,-7.972 -2.406,-11.492 0,-7.699 3.098,-14.039 8.527,-16.148 1.449,-0.481 2.637,-0.672 4.086,-0.672 7.367,0 15.43,6.992 19.457,17.301 1.676,4 2.379,7.992 2.379,11.5 0,7.73 -3.086,14.019 -8.754,16.121 z m 28.735,-63.711 c -11.875,-17.078 -31.364,-27.1487 -49.946,-27.1487 -9.011,0 -17.824,2.5585 -25.644,7.7497 -12.864,8.91 -19.035,23.617 -19.035,39.34 0,12.859 4.3,26.481 12.386,37.93 11.895,16.879 32.09,26.687 51.09,26.687 9.758,0 19.008,-2.308 26.867,-7.726 12.121,-8.43 17.621,-21.793 17.621,-36.524 0,-13.597 -4.535,-27.879 -13.339,-40.308 v 0" /><path
         id="path46"
         style="fill:#387bc7;fill-opacity:1;fill-rule:evenodd;stroke:none"
         d="m 967.543,98.1719 c -5.945,0 -13.305,3.2191 -19.969,10.0471 -15.187,15.89 -28.758,41.672 -42.547,41.672 -0.457,0 -0.968,0 -1.449,0 -23.765,-2.782 -22.578,-29.969 -26.851,-42.36 -2.383,-6.82 -7.844,-14.0701 -14.989,-14.0701 -4.73,0 -10.191,3.0586 -15.894,10.7691 -11.668,15.231 -17.137,39.352 -17.137,60.2 0,9.832 1.156,18.949 3.309,25.98 3.355,10.078 9.527,13.82 15.922,13.82 7.394,0 14.992,-5.128 18.816,-12.179 3.281,-5.86 7.851,-10.551 14.051,-10.551 3.988,0 8.781,1.879 14.472,6.289 6.664,5.199 14.25,7.543 21.391,7.543 11.641,0 22.121,-6.094 27.082,-16.613 6.66,-14.059 19.52,-43.309 30.199,-62.758 1.926,-3.77 2.864,-6.82 2.864,-9.391 0,-5.41 -3.801,-8.3981 -9.27,-8.3981 v 0" /><path
         id="path48"
         style="fill:#387bc7;fill-opacity:1;fill-rule:evenodd;stroke:none"
         d="M 1079.28,9.83984 C 1069.51,2.80859 1057.63,0 1046.93,0 c -9.73,0 -18.54,2.10938 -24.26,5.85938 -4.25,2.78125 -5.94,6.58202 -5.94,9.57032 0,4.75 3.59,8.6719 7.87,8.6719 0.71,0 1.42,-0.2227 2.09,-0.2227 2.16,-0.6992 7.4,-1.8672 13.12,-1.8672 7.12,0 14.96,1.6485 19.72,7.0196 7.85,8.9296 10.94,24.5976 10.94,39.1093 0,7.0391 -0.71,13.8203 -1.91,19.4688 -3.08,13.3396 -9.26,21.3126 -20.2,21.3126 -3.57,0 -7.36,-0.703 -11.86,-2.352 -8.11,-3.039 -15.5,-4.429 -22.13,-4.429 -20.932,0 -33.315,13.82 -33.315,34.187 0,5.133 0.742,10.781 2.41,16.613 12.605,44.989 60.855,65.348 78.445,65.348 0.23,0 0.51,0 0.71,0 7.14,-0.238 9.75,-2.809 9.75,-6.328 0,-4.68 -4.99,-10.52 -9.29,-12.41 -22.33,-10.512 -33.26,-30.199 -33.26,-44.75 0,-8.422 3.78,-15.211 11.18,-17.301 2.38,-0.699 4.73,-0.961 6.89,-0.961 11.86,0 19.97,9.402 23.28,18.262 4.08,10.808 7.39,19.461 16.44,19.668 0.19,0 0.45,0 0.67,0 9.52,0 12.63,-6.77 16.41,-21.059 5.71,-20.601 8.1,-39.351 8.1,-55.9881 0,-45.8906 -17.6,-76.3321 -33.51,-87.58206 v 0" /><path
         id="path50"
         style="fill:#387bc7;fill-opacity:1;fill-rule:evenodd;stroke:none"
         d="m 1396.37,256.449 c -3.81,-8.398 -12.84,-13.57 -20.92,-13.57 -2.38,0 -4.49,0.48 -6.68,1.43 -5.7,2.339 -8.31,7.691 -8.31,14.031 0,3.719 0.97,7.961 2.86,12.18 3.81,8.64 11.65,14.062 19.01,14.062 2.17,0 4.26,-0.48 6.18,-1.434 6.18,-2.546 10.01,-9.089 10.01,-16.636 0,-3.25 -0.71,-6.793 -2.15,-10.063 z M 1382.09,92.5117 c -5,0 -10.93,3.0469 -14.49,8.8793 -12.6,19.918 -18.54,48.05 -18.54,71.941 0,13.098 1.67,25.039 5.23,33.719 3.8,9.847 11.88,14.508 19.52,14.508 8.52,0 16.62,-6.34 16.62,-18.758 0,-1.36 0,-2.789 -0.24,-4.219 -1.42,-11.691 -2.13,-24.801 -2.13,-37.652 0,-20.86 1.67,-41.008 4.05,-53.399 0.23,-1.429 0.45,-2.851 0.45,-4 0,-7.4997 -4.72,-11.0193 -10.47,-11.0193 v 0" /><path
         id="path52"
         style="fill:#387bc7;fill-opacity:1;fill-rule:evenodd;stroke:none"
         d="m 1529.52,128.59 c -10.98,-20.168 -37.09,-31.3908 -60.88,-31.3908 -9.98,0 -19.73,1.8711 -27.8,6.0898 -18.55,9.602 -28.79,27.391 -28.79,46.859 0,9.332 2.39,18.961 7.15,28.071 12.6,23.222 39.94,40.551 67.46,40.551 6.7,0 13.13,-0.95 19.54,-3.079 9.96,-3.261 14.25,-7.953 14.25,-11.902 0,-4.687 -5.7,-8.457 -14.49,-8.457 -0.45,0 -0.74,0 -1.15,0 -0.74,0 -1.49,0 -2.15,0 -16.62,0 -40.43,-7.012 -40.43,-36.293 0,-0.937 0,-2.117 0,-3.059 1.15,-18.261 12.34,-23.871 24,-23.871 9.5,0 19.73,3.95 24.5,7.481 4.02,3.051 9.29,4.66 13.53,4.66 4.51,0 8.11,-1.859 8.11,-6.75 0,-2.371 -1,-5.199 -2.85,-8.91 v 0" /><path
         id="path54"
         style="fill:#387bc7;fill-opacity:1;fill-rule:evenodd;stroke:none"
         d="m 1682.31,112.41 c -1.17,-8.18 -4.98,-11.699 -9.53,-11.699 -5.45,0 -11.41,5.18 -14.01,14.078 -4.02,14.039 -13.81,39.102 -26.64,39.102 -1.17,0 -2.11,0 -3.34,-0.481 -14.25,-4.449 -27.77,-37.949 -33.47,-51.269 -3.13,-7.0199 -10,-15.2621 -17.86,-15.2621 -5.93,0 -12.34,4.4609 -18.06,17.1011 -10.94,24.149 -16.41,62.321 -16.41,99.34 0,28.571 3.09,56.168 9.49,75.84 2.9,8.68 10.71,16.391 17.86,16.391 0.48,0 0.95,0 1.44,0 6.43,-0.922 9.02,-7.449 9.02,-15.18 0,-1.211 0,-2.121 0,-3.062 -0.97,-10.5 -1.44,-22.258 -1.44,-33.95 0,-22.718 1.89,-45.918 6.41,-61.148 2.38,-7.449 6.42,-10.75 11.44,-10.75 4.77,0 10.68,3.301 16.37,8.879 11.91,11.711 24.3,17.59 35.23,17.59 7.58,0 14.49,-2.821 19.96,-8.692 11.35,-12.187 14.71,-37.949 14.71,-57.597 0,-7.731 -0.43,-14.52 -1.17,-19.231 v 0" /><path
         id="path56"
         style="fill:#387bc7;fill-opacity:1;fill-rule:evenodd;stroke:none"
         d="m 1838.5,220.641 c -10.68,-4.469 -22.38,-10.551 -27.34,-27.891 -2.13,-7.961 -3.09,-16.641 -3.09,-25.488 0,-23.012 6.43,-47.34 11.39,-62.332 0.97,-3.071 1.46,-5.8597 1.46,-8.4105 0,-8.4414 -4.98,-14.0898 -11.89,-14.0898 -5.73,0 -12.6,3.5508 -19.26,11.9687 -19.98,25.5236 -27.34,62.9726 -27.34,97.9106 0,31.839 6.17,61.339 14.06,77.48 6.83,13.621 14.43,18.762 21.35,18.762 8.34,0 15,-8.18 15.43,-17.789 0.48,-12.422 4.06,-26.453 24.74,-31.871 5.02,-1.172 7.85,-5.129 7.85,-9.121 0,-3.532 -2.38,-7.258 -7.36,-9.129 v 0" /><path
         id="path58"
         style="fill:#387bc7;fill-opacity:1;fill-rule:evenodd;stroke:none"
         d="m 1996.35,112.41 c -1.17,-8.18 -5,-11.699 -9.51,-11.699 -5.45,0 -11.43,5.18 -14.02,14.078 -4.07,14.039 -13.79,39.102 -26.59,39.102 -1.25,0 -2.18,0 -3.35,-0.481 -14.26,-4.449 -27.86,-37.949 -33.52,-51.269 -3.13,-7.0199 -10,-15.2621 -17.85,-15.2621 -5.92,0 -12.33,4.4609 -18.07,17.1011 -10.94,24.149 -16.42,62.321 -16.42,99.34 0,28.571 3.08,56.168 9.53,75.84 2.85,8.68 10.66,16.391 17.85,16.391 0.49,0 0.92,0 1.4,0 6.43,-0.922 9.03,-7.449 9.03,-15.18 0,-1.211 0,-2.121 0,-3.062 -0.92,-10.5 -1.41,-22.258 -1.41,-33.95 0,-22.718 1.9,-45.918 6.41,-61.148 2.34,-7.449 6.4,-10.75 11.38,-10.75 4.79,0 10.73,3.301 16.45,8.879 11.89,11.711 24.24,17.59 35.18,17.59 7.61,0 14.49,-2.821 19.98,-8.692 11.4,-12.187 14.74,-37.949 14.74,-57.597 0,-7.731 -0.51,-14.52 -1.21,-19.231 v 0" /><path
         id="path60"
         style="fill:#387bc7;fill-opacity:1;fill-rule:evenodd;stroke:none"
         d="m 2139.16,118.781 c -1.64,-14.551 -6.17,-20.1912 -14.27,-20.1912 -4.5,0 -9.94,1.9102 -16.84,4.6992 -6.17,2.602 -11.42,3.781 -16.17,3.781 -10,0 -17.83,-4.929 -27.11,-12.1911 -5.25,-3.9883 -11.91,-6.3281 -18.56,-6.3281 -9.29,0 -18.98,4.4297 -25.89,15.4292 -5,8.211 -7.41,19.7 -7.41,32.559 0,17.352 4.54,36.793 13.56,52.699 4.51,7.481 9.32,11.024 13.57,11.024 6.43,0 11.17,-7.512 11.17,-20.84 0,-0.703 0,-1.203 0,-1.871 0,-2.34 0,-4.692 0,-7.27 0,-21.32 3.56,-42.883 19.71,-43.582 0.49,0 1,0 1.19,0 24.3,0 24.75,28.102 33.07,56.91 3.53,13.11 9.49,17.832 14.96,17.832 6.17,0 11.9,-5.871 14.55,-12.671 3.75,-10.27 5.94,-29.29 5.94,-47.309 0,-7.949 -0.51,-15.902 -1.47,-22.68 v 0" /><path
         id="path62"
         style="fill:#387bc7;fill-opacity:1;fill-rule:evenodd;stroke:none"
         d="m 2269.95,128.59 c -10.96,-20.168 -37.11,-31.3908 -60.88,-31.3908 -10,0 -19.75,1.8711 -27.8,6.0898 -18.55,9.602 -28.81,27.391 -28.81,46.859 0,9.332 2.41,18.961 7.13,28.071 12.58,23.222 39.95,40.551 67.54,40.551 6.68,0 13.05,-0.95 19.5,-3.079 9.96,-3.261 14.25,-7.953 14.25,-11.902 0,-4.687 -5.72,-8.457 -14.51,-8.457 -0.49,0 -0.72,0 -1.19,0 -0.7,0 -1.43,0 -2.13,0 -16.64,0 -40.41,-7.012 -40.41,-36.293 0,-0.937 0,-2.117 0,-3.059 1.19,-18.261 12.36,-23.871 23.99,-23.871 9.55,0 19.74,3.95 24.51,7.481 4.02,3.051 9.25,4.66 13.57,4.66 4.51,0 8.07,-1.859 8.07,-6.75 0,-2.371 -0.96,-5.199 -2.83,-8.91 v 0" /><path
         id="path64"
         style="fill:#387bc7;fill-opacity:1;fill-rule:evenodd;stroke:none"
         d="m 385.586,219.18 c -1.078,-0.629 -2.129,-0.86 -3.203,-0.86 -8.578,0 -18.61,15.219 -29.543,15.219 -10.711,0 -20.117,-14.988 -30.828,-14.988 -1.899,0 -4.047,0.629 -5.973,1.668 -1.277,0.621 -1.93,2.082 -1.93,3.992 0,8.879 12.86,28.238 29.325,38.988 5.777,4.051 10.711,5.5 15.41,5.5 10.898,0 18.582,-9.461 24.386,-18.109 4.508,-7.18 7.711,-14.77 7.711,-21.102 0,-4.418 -1.503,-8.019 -5.355,-10.308 v 0" /><path
         id="path66"
         style="fill:#387bc7;fill-opacity:1;fill-rule:evenodd;stroke:none"
         d="m 801.625,219.18 c -1.07,-0.629 -2.148,-0.86 -3.258,-0.86 -8.5,0 -18.594,15.219 -29.496,15.219 -10.68,0 -20.117,-14.988 -30.785,-14.988 -1.965,0 -4.082,0.629 -6.012,1.668 -1.273,0.621 -1.922,2.082 -1.922,3.992 0,8.879 12.836,28.238 29.321,38.988 5.769,4.051 10.672,5.5 15.379,5.5 10.933,0 18.64,-9.461 24.421,-18.109 4.477,-7.18 7.668,-14.77 7.668,-21.102 0,-4.418 -1.492,-8.019 -5.316,-10.308 v 0" /><path
         id="path68"
         style="fill:#387bc7;fill-opacity:1;fill-rule:evenodd;stroke:none"
         d="m 355.242,59.8789 c -1.898,-10.9297 -8.359,-17.4687 -17.137,-17.4687 -0.394,0 -0.855,0 -1.054,0.2109 -9.203,0.4375 -18.403,7.7773 -18.403,18.75 0,0.4375 0,0.8594 0,1.2773 0.872,13.25 10.704,22.1329 20.957,22.1329 9.008,0 16.293,-8.0313 16.293,-19.3907 0,-1.7109 -0.195,-3.582 -0.656,-5.5117 v 0" /><path
         id="path70"
         style="fill:#387bc7;fill-opacity:1;fill-rule:evenodd;stroke:none"
         d="m 2100.59,59.8789 c -1.91,-10.9297 -8.32,-17.4687 -17.11,-17.4687 -0.45,0 -0.84,0 -1.05,0.2109 -9.2,0.4375 -18.44,7.7773 -18.44,18.75 0,0.4375 0,0.8594 0,1.2773 0.88,13.25 10.74,22.1329 20.99,22.1329 8.99,0 16.23,-8.0313 16.23,-19.3907 0,-1.7109 -0.17,-3.582 -0.62,-5.5117 v 0" /><path
         id="path72"
         style="fill:#387bc7;fill-opacity:1;fill-rule:evenodd;stroke:none"
         d="m 825.055,257.012 c -4.934,-3.391 -9.41,-6.352 -13.457,-6.352 -2.36,0 -4.305,1.07 -6.239,3.41 -0.586,0.828 -0.847,1.879 -0.847,3.379 0,6.531 7.281,17.5 17.113,25.699 7.477,6.34 16.488,10.75 23.57,10.75 4.047,0 7.672,-1.476 9.832,-4.867 1.465,-2.301 2.118,-4.172 2.118,-6.269 0,-12.242 -24.168,-20.25 -32.09,-25.75 v 0" /><path
         id="path74"
         style="fill:#387bc7;fill-opacity:1;fill-rule:evenodd;stroke:none"
         d="m 1253.89,125.059 c -8.77,0 -15.92,12.441 -15.92,27.671 0,15.192 7.15,27.61 15.92,27.61 8.79,0 15.96,-12.418 15.96,-27.61 0,-15.23 -7.17,-27.671 -15.96,-27.671 z m 61.53,153.382 c -0.28,1.36 -0.53,2.789 -0.79,4.008 -3.83,16.871 -11.42,25.539 -19.74,25.539 -0.49,0 -0.96,0 -1.41,0 -10,-1.168 -15.7,-10.547 -16.17,-27.179 0,-0.207 0,-0.477 0,-0.7 -14.94,-2.8 -27.16,-9.769 -27.16,-20.449 0,-0.84 0,-1.672 0.21,-2.539 1.72,-9.691 8.96,-12.66 17.98,-12.66 1.78,0 3.58,0.148 5.43,0.32 -0.5,-2.48 -1.04,-4.98 -1.72,-7.531 -3.8,-14.949 -10.68,-20.602 -18.75,-20.602 -3.08,0 -6.43,0.684 -9.74,2.122 -4.28,1.64 -8.56,2.789 -13.09,2.789 -8.07,0 -16.4,-3.739 -23.32,-13.348 -6.88,-9.371 -15.19,-30.66 -15.19,-53.883 0,-13.34 2.81,-27.406 10.21,-40.269 9.52,-16.1606 21.64,-20.8285 31.87,-20.8285 8.33,0 15.22,3.0195 18.3,5.3593 6.63,5.3902 12.39,10.8012 22.83,10.8012 1.16,0 2.37,0 3.56,-0.25 3.1,-0.219 5.73,-0.469 8.08,-0.469 8.08,0 13.33,2.566 17.85,12.418 10.42,24.14 14.7,66.512 14.7,103.512 0,10.527 -0.39,20.578 -1.05,29.648 7.43,1.73 12.92,4.789 12.92,11.512 0,0.418 0,1.066 0,1.488 -0.44,4.57 -6.83,8.602 -15.81,11.191 v 0" /><path
         id="path76"
         style="fill:#387bc7;fill-opacity:1;fill-rule:evenodd;stroke:none"
         d="m 2147.27,192.34 c -4.41,-1.93 -9.45,-1.41 -12.25,0.879 -2.5,2.133 -3.12,5.883 0.22,10.441 6.99,10.078 -5.82,14.871 2.05,25.828 0.21,0.242 0.53,0.672 0.86,1.032 5.21,5.949 15.35,6.812 22.34,0.871 0.49,-0.422 1.04,-1.102 1.58,-1.571 9.07,-9.761 5.26,-20.058 -1.15,-27.441 -4.31,-4.899 -9.84,-8.559 -13.65,-10.039 v 0" /><path
         id="path78"
         style="fill:#387bc7;fill-opacity:1;fill-rule:evenodd;stroke:none"
         d="m 1389.18,298.969 c -4.92,-3.348 -9.39,-6.289 -13.47,-6.289 -2.36,0 -4.28,1.019 -6.17,3.34 -0.69,0.851 -0.92,1.902 -0.92,3.371 0,6.539 7.32,17.488 17.15,25.75 7.48,6.308 16.48,10.711 23.53,10.711 4.08,0 7.72,-1.461 9.83,-4.821 1.51,-2.332 2.16,-4.222 2.16,-6.351 0,-12.192 -24.2,-20.239 -32.11,-25.711 v 0" /></g></g></svg>